<svg width="864" height="100" viewBox="0 0 864 100" fill="none" xmlns="http://www.w3.org/2000/svg">
<path d="M2.03344 22.82C2.55344 22.38 3.09344 22.1 3.65344 21.98C4.25344 21.86 4.81344 21.8 5.33344 21.8H14.3934C15.1134 21.8 15.7334 21.94 16.2534 22.22C16.7734 22.46 17.2134 22.8 17.5734 23.24C17.9334 23.68 18.2134 24.18 18.4134 24.74C18.6534 25.3 18.8734 25.88 19.0734 26.48L20.3334 31.76C20.9334 30.52 21.7934 29.24 22.9134 27.92C24.0334 26.6 25.4534 25.4 27.1734 24.32C28.8934 23.24 30.9334 22.36 33.2934 21.68C35.6934 20.96 38.4934 20.6 41.6934 20.6C44.2134 20.6 46.4934 20.86 48.5334 21.38C50.6134 21.86 52.4934 22.6 54.1734 23.6C55.8934 24.56 57.4534 25.76 58.8534 27.2C60.2534 28.6 61.5734 30.22 62.8134 32.06C63.5734 30.82 64.6934 29.52 66.1734 28.16C67.6934 26.8 69.4934 25.56 71.5734 24.44C73.6534 23.32 75.9734 22.4 78.5334 21.68C81.0934 20.96 83.8134 20.6 86.6934 20.6C91.2534 20.6 95.2334 21.48 98.6334 23.24C102.033 25 104.853 27.4 107.093 30.44C109.373 33.48 111.073 37.04 112.193 41.12C113.313 45.16 113.873 49.48 113.873 54.08V93.38C113.873 94.9 113.533 96.06 112.853 96.86C112.213 97.62 111.173 98 109.733 98H95.8734C94.1534 98 92.9734 97.72 92.3334 97.16C91.6934 96.56 91.3734 95.42 91.3734 93.74V54.08C91.3734 52.36 91.0934 50.76 90.5334 49.28C90.0134 47.8 89.2734 46.52 88.3134 45.44C87.3534 44.32 86.1734 43.46 84.7734 42.86C83.4134 42.22 81.8934 41.9 80.2134 41.9C78.6934 41.9 77.2534 42.2 75.8934 42.8C74.5334 43.4 73.3334 44.24 72.2934 45.32C71.2534 46.36 70.4134 47.64 69.7734 49.16C69.1734 50.64 68.8734 52.28 68.8734 54.08V93.38C68.8734 94.9 68.5334 96.06 67.8534 96.86C67.2134 97.62 66.1734 98 64.7334 98H63.4734H62.9934H50.8734C49.1534 98 47.9734 97.72 47.3334 97.16C46.6934 96.56 46.3734 95.42 46.3734 93.74V54.08C46.3734 52.36 46.1134 50.76 45.5934 49.28C45.1134 47.8 44.3934 46.52 43.4334 45.44C42.5134 44.32 41.3734 43.46 40.0134 42.86C38.6934 42.22 37.1934 41.9 35.5134 41.9C34.0734 41.9 32.6534 42.2 31.2534 42.8C29.8934 43.36 28.6534 44.18 27.5334 45.26C26.4534 46.3 25.5334 47.56 24.7734 49.04C24.0534 50.52 23.6334 52.16 23.5134 53.96V93.56C23.5134 94.24 23.3734 94.92 23.0934 95.6C22.8534 96.28 22.4734 96.8 21.9534 97.16C21.4334 97.48 20.9334 97.7 20.4534 97.82C20.0134 97.94 19.4934 98 18.8934 98H5.33344C3.61344 98 2.37344 97.58 1.61344 96.74C0.853438 95.9 0.473438 94.78 0.473438 93.38V26.24C0.473438 25.48 0.633438 24.78 0.953438 24.14C1.31344 23.5 1.79344 23 2.39344 22.64L2.03344 22.82ZM192.165 88.88C188.645 92.12 184.685 94.66 180.285 96.5C175.885 98.3 171.225 99.2 166.305 99.2C160.825 99.2 155.645 98.2 150.765 96.2C145.885 94.2 141.605 91.44 137.925 87.92C134.245 84.36 131.325 80.18 129.165 75.38C127.005 70.58 125.925 65.36 125.925 59.72C125.925 56.2 126.345 52.8 127.185 49.52C128.065 46.2 129.285 43.1 130.845 40.22C132.445 37.34 134.365 34.7 136.605 32.3C138.885 29.86 141.425 27.78 144.225 26.06C147.025 24.34 150.065 23 153.345 22.04C156.625 21.08 160.085 20.6 163.725 20.6C167.045 20.6 170.265 21.04 173.385 21.92C176.505 22.8 179.425 24.04 182.145 25.64C184.905 27.24 187.425 29.16 189.705 31.4C191.985 33.64 193.945 36.1 195.585 38.78C197.225 41.42 198.485 44.26 199.365 47.3C200.285 50.3 200.745 53.4 200.745 56.6C200.745 58.68 200.705 60.38 200.625 61.7C200.585 63.02 200.285 64.08 199.725 64.88C199.165 65.64 198.225 66.18 196.905 66.5C195.625 66.78 193.725 66.92 191.205 66.92H148.005C148.405 69.48 149.205 71.62 150.405 73.34C151.645 75.06 153.065 76.44 154.665 77.48C156.265 78.48 157.965 79.2 159.765 79.64C161.565 80.08 163.265 80.3 164.865 80.3C166.305 80.3 167.785 80.16 169.305 79.88C170.825 79.56 172.285 79.16 173.685 78.68C175.125 78.16 176.425 77.58 177.585 76.94C178.785 76.26 179.745 75.56 180.465 74.84C181.105 74.32 181.645 73.94 182.085 73.7C182.565 73.42 183.065 73.28 183.585 73.28C184.105 73.28 184.625 73.46 185.145 73.82C185.705 74.18 186.325 74.7 187.005 75.38L193.365 82.58C193.805 83.1 194.085 83.58 194.205 84.02C194.325 84.42 194.385 84.84 194.385 85.28C194.385 86.08 194.165 86.78 193.725 87.38C193.285 87.94 192.765 88.44 192.165 88.88ZM163.305 38.9C161.745 38.9 160.225 39.22 158.745 39.86C157.305 40.46 155.945 41.28 154.665 42.32C153.385 43.36 152.225 44.54 151.185 45.86C150.185 47.18 149.365 48.52 148.725 49.88H179.385C178.545 48.32 177.625 46.88 176.625 45.56C175.665 44.24 174.545 43.08 173.265 42.08C172.025 41.08 170.585 40.3 168.945 39.74C167.345 39.18 165.465 38.9 163.305 38.9ZM214.846 22.82C215.366 22.38 215.906 22.1 216.466 21.98C217.066 21.86 217.626 21.8 218.146 21.8H227.206C227.926 21.8 228.546 21.94 229.066 22.22C229.586 22.46 230.026 22.8 230.386 23.24C230.746 23.68 231.026 24.18 231.226 24.74C231.466 25.3 231.686 25.88 231.886 26.48L233.146 31.76C233.746 30.52 234.706 29.24 236.026 27.92C237.386 26.6 239.046 25.4 241.006 24.32C243.006 23.24 245.306 22.36 247.906 21.68C250.506 20.96 253.406 20.6 256.606 20.6C261.166 20.6 265.226 21.48 268.786 23.24C272.386 25 275.426 27.4 277.906 30.44C280.426 33.48 282.326 37.04 283.606 41.12C284.926 45.16 285.586 49.48 285.586 54.08V93.38C285.586 94.9 285.246 96.06 284.566 96.86C283.926 97.62 282.886 98 281.446 98H267.586C265.866 98 264.686 97.72 264.046 97.16C263.406 96.56 263.086 95.42 263.086 93.74V54.68C263.086 52.96 262.686 51.34 261.886 49.82C261.126 48.26 260.106 46.9 258.826 45.74C257.546 44.54 256.086 43.6 254.446 42.92C252.846 42.24 251.206 41.9 249.526 41.9C248.086 41.9 246.606 42.22 245.086 42.86C243.606 43.5 242.226 44.4 240.946 45.56C239.706 46.68 238.646 48.02 237.766 49.58C236.926 51.1 236.446 52.76 236.326 54.56V93.56C236.326 94.24 236.186 94.92 235.906 95.6C235.666 96.28 235.286 96.8 234.766 97.16C234.246 97.48 233.746 97.7 233.266 97.82C232.826 97.94 232.306 98 231.706 98H218.146C216.426 98 215.186 97.58 214.426 96.74C213.666 95.9 213.286 94.78 213.286 93.38V26.24C213.286 25.48 213.446 24.78 213.766 24.14C214.126 23.5 214.606 23 215.206 22.64L214.846 22.82ZM304.625 9.92C304.625 8.68 305.025 7.76 305.825 7.16C306.665 6.52 307.845 5.92 309.365 5.36L322.985 0.619998C323.185 0.579997 323.365 0.559996 323.525 0.559996C323.725 0.559996 323.905 0.559996 324.065 0.559996C325.545 0.559996 326.525 0.999995 327.005 1.87999C327.525 2.71999 327.785 3.83999 327.785 5.23999L327.725 21.74H335.945C337.225 21.74 338.265 22.12 339.065 22.88C339.865 23.64 340.265 24.78 340.265 26.3V37.88C340.265 39.56 339.865 40.8 339.065 41.6C338.265 42.36 337.225 42.74 335.945 42.74H327.725L327.785 93.38C327.785 94.9 327.345 96.06 326.465 96.86C325.585 97.62 324.365 98 322.805 98H309.245C306.165 98 304.625 96.46 304.625 93.38L304.565 42.74H298.385C295.305 42.74 293.765 41.12 293.765 37.88V26.3C293.765 23.26 295.305 21.74 298.385 21.74H304.565L304.625 9.92ZM347.001 59.96C347.001 56.28 347.461 52.74 348.381 49.34C349.341 45.94 350.661 42.8 352.341 39.92C354.061 37 356.101 34.36 358.461 32C360.861 29.6 363.521 27.56 366.441 25.88C369.361 24.2 372.501 22.9 375.861 21.98C379.261 21.06 382.801 20.6 386.481 20.6C391.921 20.6 397.021 21.62 401.781 23.66C406.581 25.66 410.741 28.44 414.261 32C417.821 35.52 420.621 39.68 422.661 44.48C424.741 49.24 425.781 54.4 425.781 59.96C425.781 63.64 425.301 67.18 424.341 70.58C423.421 73.94 422.101 77.08 420.381 80C418.701 82.92 416.661 85.58 414.261 87.98C411.901 90.34 409.261 92.38 406.341 94.1C403.421 95.78 400.281 97.08 396.921 98C393.601 98.92 390.121 99.38 386.481 99.38C382.801 99.38 379.261 98.92 375.861 98C372.501 97.08 369.361 95.78 366.441 94.1C363.521 92.38 360.861 90.34 358.461 87.98C356.101 85.58 354.061 82.92 352.341 80C350.661 77.08 349.341 73.94 348.381 70.58C347.461 67.18 347.001 63.64 347.001 59.96ZM368.901 59.96C368.901 62.6 369.301 65.08 370.101 67.4C370.941 69.68 372.101 71.66 373.581 73.34C375.101 75.02 376.921 76.36 379.041 77.36C381.201 78.32 383.621 78.8 386.301 78.8C388.901 78.8 391.241 78.32 393.321 77.36C395.441 76.36 397.221 75.02 398.661 73.34C400.141 71.66 401.261 69.68 402.021 67.4C402.821 65.08 403.221 62.6 403.221 59.96C403.221 57.4 402.821 54.96 402.021 52.64C401.261 50.32 400.141 48.28 398.661 46.52C397.221 44.76 395.441 43.38 393.321 42.38C391.241 41.34 388.901 40.82 386.301 40.82C383.621 40.82 381.201 41.34 379.041 42.38C376.921 43.38 375.101 44.76 373.581 46.52C372.101 48.28 370.941 50.32 370.101 52.64C369.301 54.96 368.901 57.4 368.901 59.96ZM439.26 22.82C439.78 22.38 440.32 22.1 440.88 21.98C441.48 21.86 442.04 21.8 442.56 21.8H451.62C452.34 21.8 452.96 21.94 453.48 22.22C454 22.46 454.44 22.8 454.8 23.24C455.16 23.68 455.44 24.18 455.64 24.74C455.88 25.3 456.1 25.88 456.3 26.48L457.56 31.76C458.16 30.52 459.02 29.24 460.14 27.92C461.26 26.6 462.68 25.4 464.4 24.32C466.12 23.24 468.16 22.36 470.52 21.68C472.92 20.96 475.72 20.6 478.92 20.6C481.44 20.6 483.72 20.86 485.76 21.38C487.84 21.86 489.72 22.6 491.4 23.6C493.12 24.56 494.68 25.76 496.08 27.2C497.48 28.6 498.8 30.22 500.04 32.06C500.8 30.82 501.92 29.52 503.4 28.16C504.92 26.8 506.72 25.56 508.8 24.44C510.88 23.32 513.2 22.4 515.76 21.68C518.32 20.96 521.04 20.6 523.92 20.6C528.48 20.6 532.46 21.48 535.86 23.24C539.26 25 542.08 27.4 544.32 30.44C546.6 33.48 548.3 37.04 549.42 41.12C550.54 45.16 551.1 49.48 551.1 54.08V93.38C551.1 94.9 550.76 96.06 550.08 96.86C549.44 97.62 548.4 98 546.96 98H533.1C531.38 98 530.2 97.72 529.56 97.16C528.92 96.56 528.6 95.42 528.6 93.74V54.08C528.6 52.36 528.32 50.76 527.76 49.28C527.24 47.8 526.5 46.52 525.54 45.44C524.58 44.32 523.4 43.46 522 42.86C520.64 42.22 519.12 41.9 517.44 41.9C515.92 41.9 514.48 42.2 513.12 42.8C511.76 43.4 510.56 44.24 509.52 45.32C508.48 46.36 507.64 47.64 507 49.16C506.4 50.64 506.1 52.28 506.1 54.08V93.38C506.1 94.9 505.76 96.06 505.08 96.86C504.44 97.62 503.4 98 501.96 98H500.7H500.22H488.1C486.38 98 485.2 97.72 484.56 97.16C483.92 96.56 483.6 95.42 483.6 93.74V54.08C483.6 52.36 483.34 50.76 482.82 49.28C482.34 47.8 481.62 46.52 480.66 45.44C479.74 44.32 478.6 43.46 477.24 42.86C475.92 42.22 474.42 41.9 472.74 41.9C471.3 41.9 469.88 42.2 468.48 42.8C467.12 43.36 465.88 44.18 464.76 45.26C463.68 46.3 462.76 47.56 462 49.04C461.28 50.52 460.86 52.16 460.74 53.96V93.56C460.74 94.24 460.6 94.92 460.32 95.6C460.08 96.28 459.7 96.8 459.18 97.16C458.66 97.48 458.16 97.7 457.68 97.82C457.24 97.94 456.72 98 456.12 98H442.56C440.84 98 439.6 97.58 438.84 96.74C438.08 95.9 437.7 94.78 437.7 93.38V26.24C437.7 25.48 437.86 24.78 438.18 24.14C438.54 23.5 439.02 23 439.62 22.64L439.26 22.82ZM629.392 88.88C625.872 92.12 621.912 94.66 617.512 96.5C613.112 98.3 608.452 99.2 603.532 99.2C598.052 99.2 592.872 98.2 587.992 96.2C583.112 94.2 578.832 91.44 575.152 87.92C571.472 84.36 568.552 80.18 566.392 75.38C564.232 70.58 563.152 65.36 563.152 59.72C563.152 56.2 563.572 52.8 564.412 49.52C565.292 46.2 566.512 43.1 568.072 40.22C569.672 37.34 571.592 34.7 573.832 32.3C576.112 29.86 578.652 27.78 581.452 26.06C584.252 24.34 587.292 23 590.572 22.04C593.852 21.08 597.312 20.6 600.952 20.6C604.272 20.6 607.492 21.04 610.612 21.92C613.732 22.8 616.652 24.04 619.372 25.64C622.132 27.24 624.652 29.16 626.932 31.4C629.212 33.64 631.172 36.1 632.812 38.78C634.452 41.42 635.712 44.26 636.592 47.3C637.512 50.3 637.972 53.4 637.972 56.6C637.972 58.68 637.932 60.38 637.852 61.7C637.812 63.02 637.512 64.08 636.952 64.88C636.392 65.64 635.452 66.18 634.132 66.5C632.852 66.78 630.952 66.92 628.432 66.92H585.232C585.632 69.48 586.432 71.62 587.632 73.34C588.872 75.06 590.292 76.44 591.892 77.48C593.492 78.48 595.192 79.2 596.992 79.64C598.792 80.08 600.492 80.3 602.092 80.3C603.532 80.3 605.012 80.16 606.532 79.88C608.052 79.56 609.512 79.16 610.912 78.68C612.352 78.16 613.652 77.58 614.812 76.94C616.012 76.26 616.972 75.56 617.692 74.84C618.332 74.32 618.872 73.94 619.312 73.7C619.792 73.42 620.292 73.28 620.812 73.28C621.332 73.28 621.852 73.46 622.372 73.82C622.932 74.18 623.552 74.7 624.232 75.38L630.592 82.58C631.032 83.1 631.312 83.58 631.432 84.02C631.552 84.42 631.612 84.84 631.612 85.28C631.612 86.08 631.392 86.78 630.952 87.38C630.512 87.94 629.992 88.44 629.392 88.88ZM600.532 38.9C598.972 38.9 597.452 39.22 595.972 39.86C594.532 40.46 593.172 41.28 591.892 42.32C590.612 43.36 589.452 44.54 588.412 45.86C587.412 47.18 586.592 48.52 585.952 49.88H616.612C615.772 48.32 614.852 46.88 613.852 45.56C612.892 44.24 611.772 43.08 610.492 42.08C609.252 41.08 607.812 40.3 606.172 39.74C604.572 39.18 602.692 38.9 600.532 38.9ZM652.073 22.82C652.593 22.38 653.133 22.1 653.693 21.98C654.293 21.86 654.853 21.8 655.373 21.8H664.433C665.153 21.8 665.773 21.94 666.293 22.22C666.813 22.46 667.253 22.8 667.613 23.24C667.973 23.68 668.253 24.18 668.453 24.74C668.693 25.3 668.913 25.88 669.113 26.48L670.373 31.76C670.973 30.52 671.933 29.24 673.253 27.92C674.613 26.6 676.273 25.4 678.233 24.32C680.233 23.24 682.533 22.36 685.133 21.68C687.733 20.96 690.633 20.6 693.833 20.6C698.393 20.6 702.453 21.48 706.013 23.24C709.613 25 712.653 27.4 715.133 30.44C717.653 33.48 719.553 37.04 720.833 41.12C722.153 45.16 722.813 49.48 722.813 54.08V93.38C722.813 94.9 722.473 96.06 721.793 96.86C721.153 97.62 720.113 98 718.673 98H704.813C703.093 98 701.913 97.72 701.273 97.16C700.633 96.56 700.313 95.42 700.313 93.74V54.68C700.313 52.96 699.913 51.34 699.113 49.82C698.353 48.26 697.333 46.9 696.053 45.74C694.773 44.54 693.313 43.6 691.673 42.92C690.073 42.24 688.433 41.9 686.753 41.9C685.313 41.9 683.833 42.22 682.313 42.86C680.833 43.5 679.453 44.4 678.173 45.56C676.933 46.68 675.873 48.02 674.992 49.58C674.153 51.1 673.673 52.76 673.553 54.56V93.56C673.553 94.24 673.413 94.92 673.133 95.6C672.893 96.28 672.513 96.8 671.993 97.16C671.473 97.48 670.973 97.7 670.493 97.82C670.053 97.94 669.533 98 668.933 98H655.373C653.653 98 652.413 97.58 651.653 96.74C650.893 95.9 650.513 94.78 650.513 93.38V26.24C650.513 25.48 650.673 24.78 650.993 24.14C651.353 23.5 651.833 23 652.433 22.64L652.073 22.82ZM741.851 9.92C741.851 8.68 742.251 7.76 743.051 7.16C743.891 6.52 745.071 5.92 746.591 5.36L760.211 0.619998C760.411 0.579997 760.591 0.559996 760.751 0.559996C760.951 0.559996 761.131 0.559996 761.291 0.559996C762.771 0.559996 763.751 0.999995 764.231 1.87999C764.751 2.71999 765.011 3.83999 765.011 5.23999L764.951 21.74H773.171C774.451 21.74 775.491 22.12 776.291 22.88C777.091 23.64 777.491 24.78 777.491 26.3V37.88C777.491 39.56 777.091 40.8 776.291 41.6C775.491 42.36 774.451 42.74 773.171 42.74H764.951L765.011 93.38C765.011 94.9 764.571 96.06 763.691 96.86C762.811 97.62 761.591 98 760.031 98H746.471C743.391 98 741.851 96.46 741.851 93.38L741.791 42.74H735.611C732.531 42.74 730.991 41.12 730.991 37.88V26.3C730.991 23.26 732.531 21.74 735.611 21.74H741.791L741.851 9.92ZM784.227 59.96C784.227 56.28 784.687 52.74 785.607 49.34C786.567 45.94 787.887 42.8 789.567 39.92C791.287 37 793.327 34.36 795.687 32C798.087 29.6 800.747 27.56 803.667 25.88C806.587 24.2 809.727 22.9 813.087 21.98C816.487 21.06 820.027 20.6 823.707 20.6C829.147 20.6 834.247 21.62 839.007 23.66C843.807 25.66 847.967 28.44 851.487 32C855.047 35.52 857.847 39.68 859.887 44.48C861.967 49.24 863.007 54.4 863.007 59.96C863.007 63.64 862.527 67.18 861.567 70.58C860.647 73.94 859.327 77.08 857.607 80C855.927 82.92 853.887 85.58 851.487 87.98C849.127 90.34 846.487 92.38 843.567 94.1C840.647 95.78 837.507 97.08 834.147 98C830.827 98.92 827.347 99.38 823.707 99.38C820.027 99.38 816.487 98.92 813.087 98C809.727 97.08 806.587 95.78 803.667 94.1C800.747 92.38 798.087 90.34 795.687 87.98C793.327 85.58 791.287 82.92 789.567 80C787.887 77.08 786.567 73.94 785.607 70.58C784.687 67.18 784.227 63.64 784.227 59.96ZM806.127 59.96C806.127 62.6 806.527 65.08 807.327 67.4C808.167 69.68 809.327 71.66 810.807 73.34C812.327 75.02 814.147 76.36 816.267 77.36C818.427 78.32 820.847 78.8 823.527 78.8C826.127 78.8 828.467 78.32 830.547 77.36C832.667 76.36 834.447 75.02 835.887 73.34C837.367 71.66 838.487 69.68 839.247 67.4C840.047 65.08 840.447 62.6 840.447 59.96C840.447 57.4 840.047 54.96 839.247 52.64C838.487 50.32 837.367 48.28 835.887 46.52C834.447 44.76 832.667 43.38 830.547 42.38C828.467 41.34 826.127 40.82 823.527 40.82C820.847 40.82 818.427 41.34 816.267 42.38C814.147 43.38 812.327 44.76 810.807 46.52C809.327 48.28 808.167 50.32 807.327 52.64C806.527 54.96 806.127 57.4 806.127 59.96Z" fill="url(#paint0_linear)"/>
<defs>
<linearGradient id="paint0_linear" x1="354" y1="-17" x2="1765.41" y2="1003.78" gradientUnits="userSpaceOnUse">
<stop stop-color="#006F9E"/>
<stop offset="1" stop-color="white"/>
</linearGradient>
</defs>
</svg>
